STARTFONT 2.1
FONT Tamsyn8x17r
SIZE -1 75 75
FONTBOUNDINGBOX 8 17 0 -4

STARTPROPERTIES 14
COPYRIGHT "(c) 2010 Scott Fial"
CHARSET_REGISTRY "ISO10646"
CHARSET_ENCODING "1"
FONT_VERSION "1.1"
WEIGHT_NAME "Normal"
POINT_SIZE 170
WEIGHT 10
RESOLUTION_X 75
RESOLUTION_Y 75
X_HEIGHT 4294967295
QUAD_WIDTH 8
DEFAULT_CHAR 0
FONT_DESCENT 4
FONT_ASCENT 13
ENDPROPERTIES

CHARS 95

STARTCHAR U+0020
ENCODING 32
SWIDTH 392 0
DWIDTH 8 0
BBX 8 17 0 -4
BITMAP
00
00
00
00
00
00
00
00
00
00
00
00
00
00
00
00
00
ENDCHAR

STARTCHAR U+0021
ENCODING 33
SWIDTH 392 0
DWIDTH 8 0
BBX 8 17 0 -4
BITMAP
00
00
00
10
10
10
10
10
10
00
00
10
10
00
00
00
00
ENDCHAR

STARTCHAR U+0022
ENCODING 34
SWIDTH 392 0
DWIDTH 8 0
BBX 8 17 0 -4
BITMAP
00
00
24
24
24
24
00
00
00
00
00
00
00
00
00
00
00
ENDCHAR

STARTCHAR U+0023
ENCODING 35
SWIDTH 392 0
DWIDTH 8 0
BBX 8 17 0 -4
BITMAP
00
00
00
00
24
24
7E
24
24
24
7E
24
24
00
00
00
00
ENDCHAR

STARTCHAR U+0024
ENCODING 36
SWIDTH 392 0
DWIDTH 8 0
BBX 8 17 0 -4
BITMAP
00
00
00
10
10
3C
40
40
38
04
04
78
10
10
00
00
00
ENDCHAR

STARTCHAR U+0025
ENCODING 37
SWIDTH 392 0
DWIDTH 8 0
BBX 8 17 0 -4
BITMAP
00
00
00
00
30
49
4A
34
08
16
29
49
06
00
00
00
00
ENDCHAR

STARTCHAR U+0026
ENCODING 38
SWIDTH 392 0
DWIDTH 8 0
BBX 8 17 0 -4
BITMAP
00
00
00
30
48
48
48
30
4F
44
44
46
39
00
00
00
00
ENDCHAR

STARTCHAR U+0027
ENCODING 39
SWIDTH 392 0
DWIDTH 8 0
BBX 8 17 0 -4
BITMAP
00
00
10
10
10
10
00
00
00
00
00
00
00
00
00
00
00
ENDCHAR

STARTCHAR U+0028
ENCODING 40
SWIDTH 392 0
DWIDTH 8 0
BBX 8 17 0 -4
BITMAP
00
00
00
04
08
08
10
10
10
10
10
10
08
08
04
00
00
ENDCHAR

STARTCHAR U+0029
ENCODING 41
SWIDTH 392 0
DWIDTH 8 0
BBX 8 17 0 -4
BITMAP
00
00
00
20
10
10
08
08
08
08
08
08
10
10
20
00
00
ENDCHAR

STARTCHAR U+002a
ENCODING 42
SWIDTH 392 0
DWIDTH 8 0
BBX 8 17 0 -4
BITMAP
00
00
00
00
00
00
24
18
7E
18
24
00
00
00
00
00
00
ENDCHAR

STARTCHAR U+002b
ENCODING 43
SWIDTH 392 0
DWIDTH 8 0
BBX 8 17 0 -4
BITMAP
00
00
00
00
00
08
08
08
7F
08
08
08
00
00
00
00
00
ENDCHAR

STARTCHAR U+002c
ENCODING 44
SWIDTH 392 0
DWIDTH 8 0
BBX 8 17 0 -4
BITMAP
00
00
00
00
00
00
00
00
00
00
00
18
18
08
10
00
00
ENDCHAR

STARTCHAR U+002d
ENCODING 45
SWIDTH 392 0
DWIDTH 8 0
BBX 8 17 0 -4
BITMAP
00
00
00
00
00
00
00
00
7E
00
00
00
00
00
00
00
00
ENDCHAR

STARTCHAR U+002e
ENCODING 46
SWIDTH 392 0
DWIDTH 8 0
BBX 8 17 0 -4
BITMAP
00
00
00
00
00
00
00
00
00
00
00
18
18
00
00
00
00
ENDCHAR

STARTCHAR U+002f
ENCODING 47
SWIDTH 392 0
DWIDTH 8 0
BBX 8 17 0 -4
BITMAP
00
00
00
02
02
04
04
08
08
10
10
20
20
40
40
00
00
ENDCHAR

STARTCHAR U+0030
ENCODING 48
SWIDTH 392 0
DWIDTH 8 0
BBX 8 17 0 -4
BITMAP
00
00
00
00
3C
42
46
4A
52
62
42
42
3C
00
00
00
00
ENDCHAR

STARTCHAR U+0031
ENCODING 49
SWIDTH 392 0
DWIDTH 8 0
BBX 8 17 0 -4
BITMAP
00
00
00
00
08
18
28
08
08
08
08
08
08
00
00
00
00
ENDCHAR

STARTCHAR U+0032
ENCODING 50
SWIDTH 392 0
DWIDTH 8 0
BBX 8 17 0 -4
BITMAP
00
00
00
00
3C
42
02
02
04
08
10
20
7E
00
00
00
00
ENDCHAR

STARTCHAR U+0033
ENCODING 51
SWIDTH 392 0
DWIDTH 8 0
BBX 8 17 0 -4
BITMAP
00
00
00
00
7E
02
04
08
1C
02
02
42
3C
00
00
00
00
ENDCHAR

STARTCHAR U+0034
ENCODING 52
SWIDTH 392 0
DWIDTH 8 0
BBX 8 17 0 -4
BITMAP
00
00
00
00
04
0C
14
24
44
7E
04
04
04
00
00
00
00
ENDCHAR

STARTCHAR U+0035
ENCODING 53
SWIDTH 392 0
DWIDTH 8 0
BBX 8 17 0 -4
BITMAP
00
00
00
00
7E
40
40
7C
02
02
02
42
3C
00
00
00
00
ENDCHAR

STARTCHAR U+0036
ENCODING 54
SWIDTH 392 0
DWIDTH 8 0
BBX 8 17 0 -4
BITMAP
00
00
00
00
1C
20
40
40
7C
42
42
42
3C
00
00
00
00
ENDCHAR

STARTCHAR U+0037
ENCODING 55
SWIDTH 392 0
DWIDTH 8 0
BBX 8 17 0 -4
BITMAP
00
00
00
00
7E
02
04
04
08
08
10
10
10
00
00
00
00
ENDCHAR

STARTCHAR U+0038
ENCODING 56
SWIDTH 392 0
DWIDTH 8 0
BBX 8 17 0 -4
BITMAP
00
00
00
00
3C
42
42
42
3C
42
42
42
3C
00
00
00
00
ENDCHAR

STARTCHAR U+0039
ENCODING 57
SWIDTH 392 0
DWIDTH 8 0
BBX 8 17 0 -4
BITMAP
00
00
00
00
3C
42
42
42
3E
02
02
04
38
00
00
00
00
ENDCHAR

STARTCHAR U+003a
ENCODING 58
SWIDTH 392 0
DWIDTH 8 0
BBX 8 17 0 -4
BITMAP
00
00
00
00
00
00
18
18
00
00
00
18
18
00
00
00
00
ENDCHAR

STARTCHAR U+003b
ENCODING 59
SWIDTH 392 0
DWIDTH 8 0
BBX 8 17 0 -4
BITMAP
00
00
00
00
00
00
18
18
00
00
00
18
18
08
10
00
00
ENDCHAR

STARTCHAR U+003c
ENCODING 60
SWIDTH 392 0
DWIDTH 8 0
BBX 8 17 0 -4
BITMAP
00
00
00
00
04
08
10
20
40
20
10
08
04
00
00
00
00
ENDCHAR

STARTCHAR U+003d
ENCODING 61
SWIDTH 392 0
DWIDTH 8 0
BBX 8 17 0 -4
BITMAP
00
00
00
00
00
00
00
7E
00
00
7E
00
00
00
00
00
00
ENDCHAR

STARTCHAR U+003e
ENCODING 62
SWIDTH 392 0
DWIDTH 8 0
BBX 8 17 0 -4
BITMAP
00
00
00
00
20
10
08
04
02
04
08
10
20
00
00
00
00
ENDCHAR

STARTCHAR U+003f
ENCODING 63
SWIDTH 392 0
DWIDTH 8 0
BBX 8 17 0 -4
BITMAP
00
00
00
38
44
04
04
08
10
10
00
00
10
00
00
00
00
ENDCHAR

STARTCHAR U+0040
ENCODING 64
SWIDTH 392 0
DWIDTH 8 0
BBX 8 17 0 -4
BITMAP
00
00
00
1C
22
41
4D
55
55
55
5F
4A
40
20
1F
00
00
ENDCHAR

STARTCHAR U+0041
ENCODING 65
SWIDTH 392 0
DWIDTH 8 0
BBX 8 17 0 -4
BITMAP
00
00
00
00
08
08
14
14
22
22
3E
41
41
00
00
00
00
ENDCHAR

STARTCHAR U+0042
ENCODING 66
SWIDTH 392 0
DWIDTH 8 0
BBX 8 17 0 -4
BITMAP
00
00
00
00
7C
42
42
42
7C
42
42
42
7C
00
00
00
00
ENDCHAR

STARTCHAR U+0043
ENCODING 67
SWIDTH 392 0
DWIDTH 8 0
BBX 8 17 0 -4
BITMAP
00
00
00
00
3C
42
40
40
40
40
40
42
3C
00
00
00
00
ENDCHAR

STARTCHAR U+0044
ENCODING 68
SWIDTH 392 0
DWIDTH 8 0
BBX 8 17 0 -4
BITMAP
00
00
00
00
7C
42
42
42
42
42
42
44
78
00
00
00
00
ENDCHAR

STARTCHAR U+0045
ENCODING 69
SWIDTH 392 0
DWIDTH 8 0
BBX 8 17 0 -4
BITMAP
00
00
00
00
7E
40
40
40
7C
40
40
40
7E
00
00
00
00
ENDCHAR

STARTCHAR U+0046
ENCODING 70
SWIDTH 392 0
DWIDTH 8 0
BBX 8 17 0 -4
BITMAP
00
00
00
00
7E
40
40
40
7C
40
40
40
40
00
00
00
00
ENDCHAR

STARTCHAR U+0047
ENCODING 71
SWIDTH 392 0
DWIDTH 8 0
BBX 8 17 0 -4
BITMAP
00
00
00
00
3C
42
40
40
4E
42
42
42
3C
00
00
00
00
ENDCHAR

STARTCHAR U+0048
ENCODING 72
SWIDTH 392 0
DWIDTH 8 0
BBX 8 17 0 -4
BITMAP
00
00
00
00
42
42
42
42
7E
42
42
42
42
00
00
00
00
ENDCHAR

STARTCHAR U+0049
ENCODING 73
SWIDTH 392 0
DWIDTH 8 0
BBX 8 17 0 -4
BITMAP
00
00
00
00
7C
10
10
10
10
10
10
10
7C
00
00
00
00
ENDCHAR

STARTCHAR U+004a
ENCODING 74
SWIDTH 392 0
DWIDTH 8 0
BBX 8 17 0 -4
BITMAP
00
00
00
00
02
02
02
02
02
02
42
42
3C
00
00
00
00
ENDCHAR

STARTCHAR U+004b
ENCODING 75
SWIDTH 392 0
DWIDTH 8 0
BBX 8 17 0 -4
BITMAP
00
00
00
00
42
44
48
50
60
50
48
44
42
00
00
00
00
ENDCHAR

STARTCHAR U+004c
ENCODING 76
SWIDTH 392 0
DWIDTH 8 0
BBX 8 17 0 -4
BITMAP
00
00
00
00
40
40
40
40
40
40
40
40
7E
00
00
00
00
ENDCHAR

STARTCHAR U+004d
ENCODING 77
SWIDTH 392 0
DWIDTH 8 0
BBX 8 17 0 -4
BITMAP
00
00
00
00
63
63
55
55
49
49
41
41
41
00
00
00
00
ENDCHAR

STARTCHAR U+004e
ENCODING 78
SWIDTH 392 0
DWIDTH 8 0
BBX 8 17 0 -4
BITMAP
00
00
00
00
42
42
62
52
4A
46
42
42
42
00
00
00
00
ENDCHAR

STARTCHAR U+004f
ENCODING 79
SWIDTH 392 0
DWIDTH 8 0
BBX 8 17 0 -4
BITMAP
00
00
00
00
3C
42
42
42
42
42
42
42
3C
00
00
00
00
ENDCHAR

STARTCHAR U+0050
ENCODING 80
SWIDTH 392 0
DWIDTH 8 0
BBX 8 17 0 -4
BITMAP
00
00
00
00
7C
42
42
42
7C
40
40
40
40
00
00
00
00
ENDCHAR

STARTCHAR U+0051
ENCODING 81
SWIDTH 392 0
DWIDTH 8 0
BBX 8 17 0 -4
BITMAP
00
00
00
00
3C
42
42
42
42
42
42
42
3C
07
00
00
00
ENDCHAR

STARTCHAR U+0052
ENCODING 82
SWIDTH 392 0
DWIDTH 8 0
BBX 8 17 0 -4
BITMAP
00
00
00
00
7C
42
42
42
7C
44
44
42
42
00
00
00
00
ENDCHAR

STARTCHAR U+0053
ENCODING 83
SWIDTH 392 0
DWIDTH 8 0
BBX 8 17 0 -4
BITMAP
00
00
00
00
3C
42
40
40
3C
02
02
42
3C
00
00
00
00
ENDCHAR

STARTCHAR U+0054
ENCODING 84
SWIDTH 392 0
DWIDTH 8 0
BBX 8 17 0 -4
BITMAP
00
00
00
00
7F
08
08
08
08
08
08
08
08
00
00
00
00
ENDCHAR

STARTCHAR U+0055
ENCODING 85
SWIDTH 392 0
DWIDTH 8 0
BBX 8 17 0 -4
BITMAP
00
00
00
00
42
42
42
42
42
42
42
42
3C
00
00
00
00
ENDCHAR

STARTCHAR U+0056
ENCODING 86
SWIDTH 392 0
DWIDTH 8 0
BBX 8 17 0 -4
BITMAP
00
00
00
00
41
41
22
22
22
14
14
08
08
00
00
00
00
ENDCHAR

STARTCHAR U+0057
ENCODING 87
SWIDTH 392 0
DWIDTH 8 0
BBX 8 17 0 -4
BITMAP
00
00
00
00
41
41
41
49
49
55
55
63
63
00
00
00
00
ENDCHAR

STARTCHAR U+0058
ENCODING 88
SWIDTH 392 0
DWIDTH 8 0
BBX 8 17 0 -4
BITMAP
00
00
00
00
41
41
22
14
08
14
22
41
41
00
00
00
00
ENDCHAR

STARTCHAR U+0059
ENCODING 89
SWIDTH 392 0
DWIDTH 8 0
BBX 8 17 0 -4
BITMAP
00
00
00
00
41
22
22
14
14
08
08
08
08
00
00
00
00
ENDCHAR

STARTCHAR U+005a
ENCODING 90
SWIDTH 392 0
DWIDTH 8 0
BBX 8 17 0 -4
BITMAP
00
00
00
00
7E
04
08
08
10
10
20
20
7E
00
00
00
00
ENDCHAR

STARTCHAR U+005b
ENCODING 91
SWIDTH 392 0
DWIDTH 8 0
BBX 8 17 0 -4
BITMAP
00
00
00
1E
10
10
10
10
10
10
10
10
10
10
1E
00
00
ENDCHAR

STARTCHAR U+005c
ENCODING 92
SWIDTH 392 0
DWIDTH 8 0
BBX 8 17 0 -4
BITMAP
00
00
00
40
40
20
20
10
10
08
08
04
04
02
02
00
00
ENDCHAR

STARTCHAR U+005d
ENCODING 93
SWIDTH 392 0
DWIDTH 8 0
BBX 8 17 0 -4
BITMAP
00
00
00
78
08
08
08
08
08
08
08
08
08
08
78
00
00
ENDCHAR

STARTCHAR U+005e
ENCODING 94
SWIDTH 392 0
DWIDTH 8 0
BBX 8 17 0 -4
BITMAP
00
00
00
10
28
44
00
00
00
00
00
00
00
00
00
00
00
ENDCHAR

STARTCHAR U+005f
ENCODING 95
SWIDTH 392 0
DWIDTH 8 0
BBX 8 17 0 -4
BITMAP
00
00
00
00
00
00
00
00
00
00
00
00
00
00
FF
00
00
ENDCHAR

STARTCHAR U+0060
ENCODING 96
SWIDTH 392 0
DWIDTH 8 0
BBX 8 17 0 -4
BITMAP
00
00
20
10
08
04
00
00
00
00
00
00
00
00
00
00
00
ENDCHAR

STARTCHAR U+0061
ENCODING 97
SWIDTH 392 0
DWIDTH 8 0
BBX 8 17 0 -4
BITMAP
00
00
00
00
00
00
3C
02
02
3E
42
46
3A
00
00
00
00
ENDCHAR

STARTCHAR U+0062
ENCODING 98
SWIDTH 392 0
DWIDTH 8 0
BBX 8 17 0 -4
BITMAP
00
00
00
40
40
40
5C
62
42
42
42
62
5C
00
00
00
00
ENDCHAR

STARTCHAR U+0063
ENCODING 99
SWIDTH 392 0
DWIDTH 8 0
BBX 8 17 0 -4
BITMAP
00
00
00
00
00
00
3C
42
40
40
40
42
3C
00
00
00
00
ENDCHAR

STARTCHAR U+0064
ENCODING 100
SWIDTH 392 0
DWIDTH 8 0
BBX 8 17 0 -4
BITMAP
00
00
00
02
02
02
3A
46
42
42
42
46
3A
00
00
00
00
ENDCHAR

STARTCHAR U+0065
ENCODING 101
SWIDTH 392 0
DWIDTH 8 0
BBX 8 17 0 -4
BITMAP
00
00
00
00
00
00
3C
42
42
7E
40
40
3E
00
00
00
00
ENDCHAR

STARTCHAR U+0066
ENCODING 102
SWIDTH 392 0
DWIDTH 8 0
BBX 8 17 0 -4
BITMAP
00
00
00
1C
22
20
20
7C
20
20
20
20
20
00
00
00
00
ENDCHAR

STARTCHAR U+0067
ENCODING 103
SWIDTH 392 0
DWIDTH 8 0
BBX 8 17 0 -4
BITMAP
00
00
00
00
00
00
3E
44
44
44
38
40
3C
42
42
3C
00
ENDCHAR

STARTCHAR U+0068
ENCODING 104
SWIDTH 392 0
DWIDTH 8 0
BBX 8 17 0 -4
BITMAP
00
00
00
40
40
40
5C
62
42
42
42
42
42
00
00
00
00
ENDCHAR

STARTCHAR U+0069
ENCODING 105
SWIDTH 392 0
DWIDTH 8 0
BBX 8 17 0 -4
BITMAP
00
00
00
08
08
00
38
08
08
08
08
08
3E
00
00
00
00
ENDCHAR

STARTCHAR U+006a
ENCODING 106
SWIDTH 392 0
DWIDTH 8 0
BBX 8 17 0 -4
BITMAP
00
00
00
04
04
00
1C
04
04
04
04
04
04
04
44
38
00
ENDCHAR

STARTCHAR U+006b
ENCODING 107
SWIDTH 392 0
DWIDTH 8 0
BBX 8 17 0 -4
BITMAP
00
00
00
40
40
40
44
48
50
70
48
44
42
00
00
00
00
ENDCHAR

STARTCHAR U+006c
ENCODING 108
SWIDTH 392 0
DWIDTH 8 0
BBX 8 17 0 -4
BITMAP
00
00
00
70
10
10
10
10
10
10
10
10
0E
00
00
00
00
ENDCHAR

STARTCHAR U+006d
ENCODING 109
SWIDTH 392 0
DWIDTH 8 0
BBX 8 17 0 -4
BITMAP
00
00
00
00
00
00
76
49
49
49
49
49
49
00
00
00
00
ENDCHAR

STARTCHAR U+006e
ENCODING 110
SWIDTH 392 0
DWIDTH 8 0
BBX 8 17 0 -4
BITMAP
00
00
00
00
00
00
5C
62
42
42
42
42
42
00
00
00
00
ENDCHAR

STARTCHAR U+006f
ENCODING 111
SWIDTH 392 0
DWIDTH 8 0
BBX 8 17 0 -4
BITMAP
00
00
00
00
00
00
3C
42
42
42
42
42
3C
00
00
00
00
ENDCHAR

STARTCHAR U+0070
ENCODING 112
SWIDTH 392 0
DWIDTH 8 0
BBX 8 17 0 -4
BITMAP
00
00
00
00
00
00
5C
62
42
42
42
62
5C
40
40
40
00
ENDCHAR

STARTCHAR U+0071
ENCODING 113
SWIDTH 392 0
DWIDTH 8 0
BBX 8 17 0 -4
BITMAP
00
00
00
00
00
00
3A
46
42
42
42
46
3A
02
02
02
00
ENDCHAR

STARTCHAR U+0072
ENCODING 114
SWIDTH 392 0
DWIDTH 8 0
BBX 8 17 0 -4
BITMAP
00
00
00
00
00
00
5C
62
40
40
40
40
40
00
00
00
00
ENDCHAR

STARTCHAR U+0073
ENCODING 115
SWIDTH 392 0
DWIDTH 8 0
BBX 8 17 0 -4
BITMAP
00
00
00
00
00
00
3E
40
40
3C
02
02
7C
00
00
00
00
ENDCHAR

STARTCHAR U+0074
ENCODING 116
SWIDTH 392 0
DWIDTH 8 0
BBX 8 17 0 -4
BITMAP
00
00
00
00
20
20
7C
20
20
20
20
22
1C
00
00
00
00
ENDCHAR

STARTCHAR U+0075
ENCODING 117
SWIDTH 392 0
DWIDTH 8 0
BBX 8 17 0 -4
BITMAP
00
00
00
00
00
00
42
42
42
42
42
46
3A
00
00
00
00
ENDCHAR

STARTCHAR U+0076
ENCODING 118
SWIDTH 392 0
DWIDTH 8 0
BBX 8 17 0 -4
BITMAP
00
00
00
00
00
00
41
41
22
22
14
14
08
00
00
00
00
ENDCHAR

STARTCHAR U+0077
ENCODING 119
SWIDTH 392 0
DWIDTH 8 0
BBX 8 17 0 -4
BITMAP
00
00
00
00
00
00
41
49
49
49
36
22
22
00
00
00
00
ENDCHAR

STARTCHAR U+0078
ENCODING 120
SWIDTH 392 0
DWIDTH 8 0
BBX 8 17 0 -4
BITMAP
00
00
00
00
00
00
41
22
14
08
14
22
41
00
00
00
00
ENDCHAR

STARTCHAR U+0079
ENCODING 121
SWIDTH 392 0
DWIDTH 8 0
BBX 8 17 0 -4
BITMAP
00
00
00
00
00
00
41
41
22
22
14
14
08
08
10
60
00
ENDCHAR

STARTCHAR U+007a
ENCODING 122
SWIDTH 392 0
DWIDTH 8 0
BBX 8 17 0 -4
BITMAP
00
00
00
00
00
00
7E
04
08
10
20
40
7E
00
00
00
00
ENDCHAR

STARTCHAR U+007b
ENCODING 123
SWIDTH 392 0
DWIDTH 8 0
BBX 8 17 0 -4
BITMAP
00
00
0E
10
10
10
10
10
60
10
10
10
10
10
0E
00
00
ENDCHAR

STARTCHAR U+007c
ENCODING 124
SWIDTH 392 0
DWIDTH 8 0
BBX 8 17 0 -4
BITMAP
00
00
00
00
08
08
08
08
08
08
08
08
08
08
08
00
00
ENDCHAR

STARTCHAR U+007d
ENCODING 125
SWIDTH 392 0
DWIDTH 8 0
BBX 8 17 0 -4
BITMAP
00
00
70
08
08
08
08
08
06
08
08
08
08
08
70
00
00
ENDCHAR

STARTCHAR U+007e
ENCODING 126
SWIDTH 392 0
DWIDTH 8 0
BBX 8 17 0 -4
BITMAP
00
00
00
31
49
46
00
00
00
00
00
00
00
00
00
00
00
ENDCHAR

ENDFONT
