STARTFONT 2.1
FONT -Misc-Tamzen-Bold-R-Normal--11-79-100-100-C-60-ISO8859-1
SIZE 11 100 100
FONTBOUNDINGBOX 6 11 0 -2
STARTPROPERTIES 24
FONTNAME_REGISTRY ""
FOUNDRY "Misc"
FAMILY_NAME "Tamzen"
WEIGHT_NAME "Bold"
SLANT "R"
SETWIDTH_NAME "Normal"
ADD_STYLE_NAME ""
PIXEL_SIZE 11
POINT_SIZE 79
RESOLUTION_X 100
RESOLUTION_Y 100
SPACING "C"
AVERAGE_WIDTH 60
CHARSET_REGISTRY "ISO8859"
CHARSET_ENCODING "1"
COPYRIGHT "(c) 2010 Scott Fial"
CAP_HEIGHT 7
X_HEIGHT 5
FONT_VERSION "1.6"
WEIGHT 10
QUAD_WIDTH 6
DEFAULT_CHAR 0
FONT_DESCENT 2
FONT_ASCENT 9
ENDPROPERTIES 
CHARS 223

STARTCHAR U+0000
ENCODING 0
SWIDTH 392 0
DWIDTH 6 0
BBX 6 11 0 -2
BITMAP
00
00
00
78
48
48
48
48
78
00
00
ENDCHAR

STARTCHAR U+0001
ENCODING 1
SWIDTH 392 0
DWIDTH 6 0
BBX 6 11 0 -2
BITMAP
00
00
00
78
48
48
48
48
78
00
00
ENDCHAR

STARTCHAR U+0002
ENCODING 2
SWIDTH 392 0
DWIDTH 6 0
BBX 6 11 0 -2
BITMAP
A8
54
A8
54
A8
54
A8
54
A8
54
A8
ENDCHAR

STARTCHAR U+0003
ENCODING 3
SWIDTH 392 0
DWIDTH 6 0
BBX 6 11 0 -2
BITMAP
00
00
00
78
48
48
48
48
78
00
00
ENDCHAR

STARTCHAR U+0004
ENCODING 4
SWIDTH 392 0
DWIDTH 6 0
BBX 6 11 0 -2
BITMAP
00
00
00
78
48
48
48
48
78
00
00
ENDCHAR

STARTCHAR U+0005
ENCODING 5
SWIDTH 392 0
DWIDTH 6 0
BBX 6 11 0 -2
BITMAP
00
00
00
78
48
48
48
48
78
00
00
ENDCHAR

STARTCHAR U+0006
ENCODING 6
SWIDTH 392 0
DWIDTH 6 0
BBX 6 11 0 -2
BITMAP
00
00
00
78
48
48
48
48
78
00
00
ENDCHAR

STARTCHAR U+0007
ENCODING 7
SWIDTH 392 0
DWIDTH 6 0
BBX 6 11 0 -2
BITMAP
00
00
00
78
48
48
48
48
78
00
00
ENDCHAR

STARTCHAR U+0008
ENCODING 8
SWIDTH 392 0
DWIDTH 6 0
BBX 6 11 0 -2
BITMAP
00
00
00
78
48
48
48
48
78
00
00
ENDCHAR

STARTCHAR U+0009
ENCODING 9
SWIDTH 392 0
DWIDTH 6 0
BBX 6 11 0 -2
BITMAP
00
00
00
78
48
48
48
48
78
00
00
ENDCHAR

STARTCHAR U+000a
ENCODING 10
SWIDTH 392 0
DWIDTH 6 0
BBX 6 11 0 -2
BITMAP
00
00
00
78
48
48
48
48
78
00
00
ENDCHAR

STARTCHAR U+000b
ENCODING 11
SWIDTH 392 0
DWIDTH 6 0
BBX 6 11 0 -2
BITMAP
20
20
20
20
20
E0
00
00
00
00
00
ENDCHAR

STARTCHAR U+000c
ENCODING 12
SWIDTH 392 0
DWIDTH 6 0
BBX 6 11 0 -2
BITMAP
00
00
00
00
00
E0
20
20
20
20
20
ENDCHAR

STARTCHAR U+000d
ENCODING 13
SWIDTH 392 0
DWIDTH 6 0
BBX 6 11 0 -2
BITMAP
00
00
00
00
00
3C
20
20
20
20
20
ENDCHAR

STARTCHAR U+000e
ENCODING 14
SWIDTH 392 0
DWIDTH 6 0
BBX 6 11 0 -2
BITMAP
20
20
20
20
20
3C
00
00
00
00
00
ENDCHAR

STARTCHAR U+000f
ENCODING 15
SWIDTH 392 0
DWIDTH 6 0
BBX 6 11 0 -2
BITMAP
20
20
20
20
20
FC
20
20
20
20
20
ENDCHAR

STARTCHAR U+0010
ENCODING 16
SWIDTH 392 0
DWIDTH 6 0
BBX 6 11 0 -2
BITMAP
FC
00
00
00
00
00
00
00
00
00
00
ENDCHAR

STARTCHAR U+0011
ENCODING 17
SWIDTH 392 0
DWIDTH 6 0
BBX 6 11 0 -2
BITMAP
00
00
FC
00
00
00
00
00
00
00
00
ENDCHAR

STARTCHAR U+0012
ENCODING 18
SWIDTH 392 0
DWIDTH 6 0
BBX 6 11 0 -2
BITMAP
00
00
00
00
00
FC
00
00
00
00
00
ENDCHAR

STARTCHAR U+0013
ENCODING 19
SWIDTH 392 0
DWIDTH 6 0
BBX 6 11 0 -2
BITMAP
00
00
00
00
00
00
00
00
FC
00
00
ENDCHAR

STARTCHAR U+0014
ENCODING 20
SWIDTH 392 0
DWIDTH 6 0
BBX 6 11 0 -2
BITMAP
00
00
00
00
00
00
00
00
00
00
FC
ENDCHAR

STARTCHAR U+0015
ENCODING 21
SWIDTH 392 0
DWIDTH 6 0
BBX 6 11 0 -2
BITMAP
20
20
20
20
20
3C
20
20
20
20
20
ENDCHAR

STARTCHAR U+0016
ENCODING 22
SWIDTH 392 0
DWIDTH 6 0
BBX 6 11 0 -2
BITMAP
20
20
20
20
20
E0
20
20
20
20
20
ENDCHAR

STARTCHAR U+0017
ENCODING 23
SWIDTH 392 0
DWIDTH 6 0
BBX 6 11 0 -2
BITMAP
20
20
20
20
20
FC
00
00
00
00
00
ENDCHAR

STARTCHAR U+0018
ENCODING 24
SWIDTH 392 0
DWIDTH 6 0
BBX 6 11 0 -2
BITMAP
00
00
00
00
00
FC
20
20
20
20
20
ENDCHAR

STARTCHAR U+0019
ENCODING 25
SWIDTH 392 0
DWIDTH 6 0
BBX 6 11 0 -2
BITMAP
20
20
20
20
20
20
20
20
20
20
20
ENDCHAR

STARTCHAR U+001a
ENCODING 26
SWIDTH 392 0
DWIDTH 6 0
BBX 6 11 0 -2
BITMAP
00
00
00
78
48
48
48
48
78
00
00
ENDCHAR

STARTCHAR U+001b
ENCODING 27
SWIDTH 392 0
DWIDTH 6 0
BBX 6 11 0 -2
BITMAP
00
00
00
78
48
48
48
48
78
00
00
ENDCHAR

STARTCHAR U+001c
ENCODING 28
SWIDTH 392 0
DWIDTH 6 0
BBX 6 11 0 -2
BITMAP
00
00
00
78
48
48
48
48
78
00
00
ENDCHAR

STARTCHAR U+001d
ENCODING 29
SWIDTH 392 0
DWIDTH 6 0
BBX 6 11 0 -2
BITMAP
00
00
00
78
48
48
48
48
78
00
00
ENDCHAR

STARTCHAR U+001e
ENCODING 30
SWIDTH 392 0
DWIDTH 6 0
BBX 6 11 0 -2
BITMAP
00
00
00
78
48
48
48
48
78
00
00
ENDCHAR

STARTCHAR U+001f
ENCODING 31
SWIDTH 392 0
DWIDTH 6 0
BBX 6 11 0 -2
BITMAP
00
00
00
78
48
48
48
48
78
00
00
ENDCHAR

STARTCHAR U+0020
ENCODING 32
SWIDTH 392 0
DWIDTH 6 0
BBX 6 11 0 -2
BITMAP
00
00
00
00
00
00
00
00
00
00
00
ENDCHAR

STARTCHAR U+0021
ENCODING 33
SWIDTH 392 0
DWIDTH 6 0
BBX 6 11 0 -2
BITMAP
00
60
F0
F0
60
60
00
00
60
00
00
ENDCHAR

STARTCHAR U+0022
ENCODING 34
SWIDTH 392 0
DWIDTH 6 0
BBX 6 11 0 -2
BITMAP
00
D8
D8
D8
00
00
00
00
00
00
00
ENDCHAR

STARTCHAR U+0023
ENCODING 35
SWIDTH 392 0
DWIDTH 6 0
BBX 6 11 0 -2
BITMAP
00
50
F8
50
50
F8
F8
50
50
00
00
ENDCHAR

STARTCHAR U+0024
ENCODING 36
SWIDTH 392 0
DWIDTH 6 0
BBX 6 11 0 -2
BITMAP
00
30
30
78
C0
70
18
F0
60
60
00
ENDCHAR

STARTCHAR U+0025
ENCODING 37
SWIDTH 392 0
DWIDTH 6 0
BBX 6 11 0 -2
BITMAP
00
00
68
B8
F0
20
78
E8
B0
00
00
ENDCHAR

STARTCHAR U+0026
ENCODING 38
SWIDTH 392 0
DWIDTH 6 0
BBX 6 11 0 -2
BITMAP
00
60
D0
D0
60
F8
D0
D8
68
00
00
ENDCHAR

STARTCHAR U+0027
ENCODING 39
SWIDTH 392 0
DWIDTH 6 0
BBX 6 11 0 -2
BITMAP
00
60
60
60
00
00
00
00
00
00
00
ENDCHAR

STARTCHAR U+0028
ENCODING 40
SWIDTH 392 0
DWIDTH 6 0
BBX 6 11 0 -2
BITMAP
00
18
30
30
60
60
60
60
30
30
18
ENDCHAR

STARTCHAR U+0029
ENCODING 41
SWIDTH 392 0
DWIDTH 6 0
BBX 6 11 0 -2
BITMAP
00
C0
60
60
30
30
30
30
60
60
C0
ENDCHAR

STARTCHAR U+002a
ENCODING 42
SWIDTH 392 0
DWIDTH 6 0
BBX 6 11 0 -2
BITMAP
00
00
00
20
F8
70
F8
20
00
00
00
ENDCHAR

STARTCHAR U+002b
ENCODING 43
SWIDTH 392 0
DWIDTH 6 0
BBX 6 11 0 -2
BITMAP
00
00
00
30
30
FC
30
30
00
00
00
ENDCHAR

STARTCHAR U+002c
ENCODING 44
SWIDTH 392 0
DWIDTH 6 0
BBX 6 11 0 -2
BITMAP
00
00
00
00
00
00
00
70
70
30
60
ENDCHAR

STARTCHAR U+002d
ENCODING 45
SWIDTH 392 0
DWIDTH 6 0
BBX 6 11 0 -2
BITMAP
00
00
00
00
00
F8
00
00
00
00
00
ENDCHAR

STARTCHAR U+002e
ENCODING 46
SWIDTH 392 0
DWIDTH 6 0
BBX 6 11 0 -2
BITMAP
00
00
00
00
00
00
00
70
70
00
00
ENDCHAR

STARTCHAR U+002f
ENCODING 47
SWIDTH 392 0
DWIDTH 6 0
BBX 6 11 0 -2
BITMAP
00
00
18
18
30
30
60
60
C0
C0
00
ENDCHAR

STARTCHAR U+0030
ENCODING 48
SWIDTH 392 0
DWIDTH 6 0
BBX 6 11 0 -2
BITMAP
00
00
70
C8
D8
E8
C8
C8
70
00
00
ENDCHAR

STARTCHAR U+0031
ENCODING 49
SWIDTH 392 0
DWIDTH 6 0
BBX 6 11 0 -2
BITMAP
00
00
30
70
F0
30
30
30
30
00
00
ENDCHAR

STARTCHAR U+0032
ENCODING 50
SWIDTH 392 0
DWIDTH 6 0
BBX 6 11 0 -2
BITMAP
00
00
70
98
18
30
60
C0
F8
00
00
ENDCHAR

STARTCHAR U+0033
ENCODING 51
SWIDTH 392 0
DWIDTH 6 0
BBX 6 11 0 -2
BITMAP
00
00
F8
18
30
70
18
98
70
00
00
ENDCHAR

STARTCHAR U+0034
ENCODING 52
SWIDTH 392 0
DWIDTH 6 0
BBX 6 11 0 -2
BITMAP
00
00
18
38
58
98
F8
18
18
00
00
ENDCHAR

STARTCHAR U+0035
ENCODING 53
SWIDTH 392 0
DWIDTH 6 0
BBX 6 11 0 -2
BITMAP
00
00
F8
C0
F0
18
18
98
70
00
00
ENDCHAR

STARTCHAR U+0036
ENCODING 54
SWIDTH 392 0
DWIDTH 6 0
BBX 6 11 0 -2
BITMAP
00
00
70
C0
F0
C8
C8
C8
70
00
00
ENDCHAR

STARTCHAR U+0037
ENCODING 55
SWIDTH 392 0
DWIDTH 6 0
BBX 6 11 0 -2
BITMAP
00
00
F8
18
30
30
60
60
60
00
00
ENDCHAR

STARTCHAR U+0038
ENCODING 56
SWIDTH 392 0
DWIDTH 6 0
BBX 6 11 0 -2
BITMAP
00
00
70
C8
C8
70
C8
C8
70
00
00
ENDCHAR

STARTCHAR U+0039
ENCODING 57
SWIDTH 392 0
DWIDTH 6 0
BBX 6 11 0 -2
BITMAP
00
00
70
C8
C8
C8
78
18
70
00
00
ENDCHAR

STARTCHAR U+003a
ENCODING 58
SWIDTH 392 0
DWIDTH 6 0
BBX 6 11 0 -2
BITMAP
00
00
00
70
70
00
00
70
70
00
00
ENDCHAR

STARTCHAR U+003b
ENCODING 59
SWIDTH 392 0
DWIDTH 6 0
BBX 6 11 0 -2
BITMAP
00
00
00
70
70
00
00
70
70
30
60
ENDCHAR

STARTCHAR U+003c
ENCODING 60
SWIDTH 392 0
DWIDTH 6 0
BBX 6 11 0 -2
BITMAP
00
00
18
30
60
C0
60
30
18
00
00
ENDCHAR

STARTCHAR U+003d
ENCODING 61
SWIDTH 392 0
DWIDTH 6 0
BBX 6 11 0 -2
BITMAP
00
00
00
00
F8
00
F8
00
00
00
00
ENDCHAR

STARTCHAR U+003e
ENCODING 62
SWIDTH 392 0
DWIDTH 6 0
BBX 6 11 0 -2
BITMAP
00
00
C0
60
30
18
30
60
C0
00
00
ENDCHAR

STARTCHAR U+003f
ENCODING 63
SWIDTH 392 0
DWIDTH 6 0
BBX 6 11 0 -2
BITMAP
00
70
98
18
30
60
00
00
60
00
00
ENDCHAR

STARTCHAR U+0040
ENCODING 64
SWIDTH 392 0
DWIDTH 6 0
BBX 6 11 0 -2
BITMAP
00
70
C8
C8
D8
D8
D8
C0
C0
78
00
ENDCHAR

STARTCHAR U+0041
ENCODING 65
SWIDTH 392 0
DWIDTH 6 0
BBX 6 11 0 -2
BITMAP
00
00
20
70
C8
C8
F8
C8
C8
00
00
ENDCHAR

STARTCHAR U+0042
ENCODING 66
SWIDTH 392 0
DWIDTH 6 0
BBX 6 11 0 -2
BITMAP
00
00
F0
C8
C8
F0
C8
C8
F0
00
00
ENDCHAR

STARTCHAR U+0043
ENCODING 67
SWIDTH 392 0
DWIDTH 6 0
BBX 6 11 0 -2
BITMAP
00
00
70
C8
C0
C0
C0
C8
70
00
00
ENDCHAR

STARTCHAR U+0044
ENCODING 68
SWIDTH 392 0
DWIDTH 6 0
BBX 6 11 0 -2
BITMAP
00
00
F0
C8
C8
C8
C8
F0
E0
00
00
ENDCHAR

STARTCHAR U+0045
ENCODING 69
SWIDTH 392 0
DWIDTH 6 0
BBX 6 11 0 -2
BITMAP
00
00
F8
C0
C0
F0
C0
C0
F8
00
00
ENDCHAR

STARTCHAR U+0046
ENCODING 70
SWIDTH 392 0
DWIDTH 6 0
BBX 6 11 0 -2
BITMAP
00
00
F8
C0
C0
F0
C0
C0
C0
00
00
ENDCHAR

STARTCHAR U+0047
ENCODING 71
SWIDTH 392 0
DWIDTH 6 0
BBX 6 11 0 -2
BITMAP
00
00
70
C8
C0
D8
C8
C8
78
00
00
ENDCHAR

STARTCHAR U+0048
ENCODING 72
SWIDTH 392 0
DWIDTH 6 0
BBX 6 11 0 -2
BITMAP
00
00
C8
C8
C8
F8
C8
C8
C8
00
00
ENDCHAR

STARTCHAR U+0049
ENCODING 73
SWIDTH 392 0
DWIDTH 6 0
BBX 6 11 0 -2
BITMAP
00
00
F0
60
60
60
60
60
F0
00
00
ENDCHAR

STARTCHAR U+004a
ENCODING 74
SWIDTH 392 0
DWIDTH 6 0
BBX 6 11 0 -2
BITMAP
00
00
18
18
18
18
98
98
70
00
00
ENDCHAR

STARTCHAR U+004b
ENCODING 75
SWIDTH 392 0
DWIDTH 6 0
BBX 6 11 0 -2
BITMAP
00
00
C8
D8
F0
E0
F0
D8
C8
00
00
ENDCHAR

STARTCHAR U+004c
ENCODING 76
SWIDTH 392 0
DWIDTH 6 0
BBX 6 11 0 -2
BITMAP
00
00
C0
C0
C0
C0
C0
C0
F8
00
00
ENDCHAR

STARTCHAR U+004d
ENCODING 77
SWIDTH 392 0
DWIDTH 6 0
BBX 6 11 0 -2
BITMAP
00
00
88
D8
F8
F8
C8
C8
C8
00
00
ENDCHAR

STARTCHAR U+004e
ENCODING 78
SWIDTH 392 0
DWIDTH 6 0
BBX 6 11 0 -2
BITMAP
00
00
C8
C8
E8
F8
D8
C8
C8
00
00
ENDCHAR

STARTCHAR U+004f
ENCODING 79
SWIDTH 392 0
DWIDTH 6 0
BBX 6 11 0 -2
BITMAP
00
00
70
C8
C8
C8
C8
C8
70
00
00
ENDCHAR

STARTCHAR U+0050
ENCODING 80
SWIDTH 392 0
DWIDTH 6 0
BBX 6 11 0 -2
BITMAP
00
00
F0
C8
C8
F0
C0
C0
C0
00
00
ENDCHAR

STARTCHAR U+0051
ENCODING 81
SWIDTH 392 0
DWIDTH 6 0
BBX 6 11 0 -2
BITMAP
00
00
70
C8
C8
C8
C8
C8
70
18
00
ENDCHAR

STARTCHAR U+0052
ENCODING 82
SWIDTH 392 0
DWIDTH 6 0
BBX 6 11 0 -2
BITMAP
00
00
F0
C8
C8
F0
F0
D8
C8
00
00
ENDCHAR

STARTCHAR U+0053
ENCODING 83
SWIDTH 392 0
DWIDTH 6 0
BBX 6 11 0 -2
BITMAP
00
00
70
C8
C0
70
18
98
70
00
00
ENDCHAR

STARTCHAR U+0054
ENCODING 84
SWIDTH 392 0
DWIDTH 6 0
BBX 6 11 0 -2
BITMAP
00
00
FC
30
30
30
30
30
30
00
00
ENDCHAR

STARTCHAR U+0055
ENCODING 85
SWIDTH 392 0
DWIDTH 6 0
BBX 6 11 0 -2
BITMAP
00
00
C8
C8
C8
C8
C8
C8
70
00
00
ENDCHAR

STARTCHAR U+0056
ENCODING 86
SWIDTH 392 0
DWIDTH 6 0
BBX 6 11 0 -2
BITMAP
00
00
C8
C8
C8
C8
70
70
20
00
00
ENDCHAR

STARTCHAR U+0057
ENCODING 87
SWIDTH 392 0
DWIDTH 6 0
BBX 6 11 0 -2
BITMAP
00
00
C8
C8
C8
F8
F8
D8
88
00
00
ENDCHAR

STARTCHAR U+0058
ENCODING 88
SWIDTH 392 0
DWIDTH 6 0
BBX 6 11 0 -2
BITMAP
00
00
C8
C8
70
70
70
C8
C8
00
00
ENDCHAR

STARTCHAR U+0059
ENCODING 89
SWIDTH 392 0
DWIDTH 6 0
BBX 6 11 0 -2
BITMAP
00
00
C8
C8
C8
78
30
30
30
00
00
ENDCHAR

STARTCHAR U+005a
ENCODING 90
SWIDTH 392 0
DWIDTH 6 0
BBX 6 11 0 -2
BITMAP
00
00
F8
30
30
60
60
C0
F8
00
00
ENDCHAR

STARTCHAR U+005b
ENCODING 91
SWIDTH 392 0
DWIDTH 6 0
BBX 6 11 0 -2
BITMAP
00
78
60
60
60
60
60
60
60
60
78
ENDCHAR

STARTCHAR U+005c
ENCODING 92
SWIDTH 392 0
DWIDTH 6 0
BBX 6 11 0 -2
BITMAP
00
00
C0
C0
60
60
30
30
18
18
00
ENDCHAR

STARTCHAR U+005d
ENCODING 93
SWIDTH 392 0
DWIDTH 6 0
BBX 6 11 0 -2
BITMAP
00
F0
30
30
30
30
30
30
30
30
F0
ENDCHAR

STARTCHAR U+005e
ENCODING 94
SWIDTH 392 0
DWIDTH 6 0
BBX 6 11 0 -2
BITMAP
00
00
20
70
D8
88
00
00
00
00
00
ENDCHAR

STARTCHAR U+005f
ENCODING 95
SWIDTH 392 0
DWIDTH 6 0
BBX 6 11 0 -2
BITMAP
00
00
00
00
00
00
00
00
00
FC
00
ENDCHAR

STARTCHAR U+0060
ENCODING 96
SWIDTH 392 0
DWIDTH 6 0
BBX 6 11 0 -2
BITMAP
00
40
60
30
10
00
00
00
00
00
00
ENDCHAR

STARTCHAR U+0061
ENCODING 97
SWIDTH 392 0
DWIDTH 6 0
BBX 6 11 0 -2
BITMAP
00
00
00
00
70
18
78
98
78
00
00
ENDCHAR

STARTCHAR U+0062
ENCODING 98
SWIDTH 392 0
DWIDTH 6 0
BBX 6 11 0 -2
BITMAP
00
00
C0
C0
F0
C8
C8
C8
F0
00
00
ENDCHAR

STARTCHAR U+0063
ENCODING 99
SWIDTH 392 0
DWIDTH 6 0
BBX 6 11 0 -2
BITMAP
00
00
00
00
78
C0
C0
C0
78
00
00
ENDCHAR

STARTCHAR U+0064
ENCODING 100
SWIDTH 392 0
DWIDTH 6 0
BBX 6 11 0 -2
BITMAP
00
00
18
18
78
98
98
98
78
00
00
ENDCHAR

STARTCHAR U+0065
ENCODING 101
SWIDTH 392 0
DWIDTH 6 0
BBX 6 11 0 -2
BITMAP
00
00
00
00
70
C8
F8
C0
78
00
00
ENDCHAR

STARTCHAR U+0066
ENCODING 102
SWIDTH 392 0
DWIDTH 6 0
BBX 6 11 0 -2
BITMAP
00
00
38
60
60
F8
60
60
60
00
00
ENDCHAR

STARTCHAR U+0067
ENCODING 103
SWIDTH 392 0
DWIDTH 6 0
BBX 6 11 0 -2
BITMAP
00
00
00
00
78
D8
70
C0
78
C8
70
ENDCHAR

STARTCHAR U+0068
ENCODING 104
SWIDTH 392 0
DWIDTH 6 0
BBX 6 11 0 -2
BITMAP
00
00
C0
C0
F0
C8
C8
C8
C8
00
00
ENDCHAR

STARTCHAR U+0069
ENCODING 105
SWIDTH 392 0
DWIDTH 6 0
BBX 6 11 0 -2
BITMAP
00
00
30
00
70
30
30
30
78
00
00
ENDCHAR

STARTCHAR U+006a
ENCODING 106
SWIDTH 392 0
DWIDTH 6 0
BBX 6 11 0 -2
BITMAP
00
00
30
00
70
30
30
30
30
30
E0
ENDCHAR

STARTCHAR U+006b
ENCODING 107
SWIDTH 392 0
DWIDTH 6 0
BBX 6 11 0 -2
BITMAP
00
00
C0
C0
D8
F0
F0
D8
C8
00
00
ENDCHAR

STARTCHAR U+006c
ENCODING 108
SWIDTH 392 0
DWIDTH 6 0
BBX 6 11 0 -2
BITMAP
00
00
E0
60
60
60
60
60
38
00
00
ENDCHAR

STARTCHAR U+006d
ENCODING 109
SWIDTH 392 0
DWIDTH 6 0
BBX 6 11 0 -2
BITMAP
00
00
00
00
F0
F8
A8
A8
A8
00
00
ENDCHAR

STARTCHAR U+006e
ENCODING 110
SWIDTH 392 0
DWIDTH 6 0
BBX 6 11 0 -2
BITMAP
00
00
00
00
F0
C8
C8
C8
C8
00
00
ENDCHAR

STARTCHAR U+006f
ENCODING 111
SWIDTH 392 0
DWIDTH 6 0
BBX 6 11 0 -2
BITMAP
00
00
00
00
70
C8
C8
C8
70
00
00
ENDCHAR

STARTCHAR U+0070
ENCODING 112
SWIDTH 392 0
DWIDTH 6 0
BBX 6 11 0 -2
BITMAP
00
00
00
00
F0
C8
C8
C8
F0
C0
C0
ENDCHAR

STARTCHAR U+0071
ENCODING 113
SWIDTH 392 0
DWIDTH 6 0
BBX 6 11 0 -2
BITMAP
00
00
00
00
78
98
98
98
78
18
18
ENDCHAR

STARTCHAR U+0072
ENCODING 114
SWIDTH 392 0
DWIDTH 6 0
BBX 6 11 0 -2
BITMAP
00
00
00
00
D8
E0
C0
C0
C0
00
00
ENDCHAR

STARTCHAR U+0073
ENCODING 115
SWIDTH 392 0
DWIDTH 6 0
BBX 6 11 0 -2
BITMAP
00
00
00
00
78
C0
70
18
F0
00
00
ENDCHAR

STARTCHAR U+0074
ENCODING 116
SWIDTH 392 0
DWIDTH 6 0
BBX 6 11 0 -2
BITMAP
00
00
60
60
F8
60
60
60
38
00
00
ENDCHAR

STARTCHAR U+0075
ENCODING 117
SWIDTH 392 0
DWIDTH 6 0
BBX 6 11 0 -2
BITMAP
00
00
00
00
C8
C8
C8
C8
70
00
00
ENDCHAR

STARTCHAR U+0076
ENCODING 118
SWIDTH 392 0
DWIDTH 6 0
BBX 6 11 0 -2
BITMAP
00
00
00
00
C8
C8
70
70
20
00
00
ENDCHAR

STARTCHAR U+0077
ENCODING 119
SWIDTH 392 0
DWIDTH 6 0
BBX 6 11 0 -2
BITMAP
00
00
00
00
A8
A8
A8
F8
F0
00
00
ENDCHAR

STARTCHAR U+0078
ENCODING 120
SWIDTH 392 0
DWIDTH 6 0
BBX 6 11 0 -2
BITMAP
00
00
00
00
C8
70
70
70
C8
00
00
ENDCHAR

STARTCHAR U+0079
ENCODING 121
SWIDTH 392 0
DWIDTH 6 0
BBX 6 11 0 -2
BITMAP
00
00
00
00
C8
C8
C8
C8
78
18
70
ENDCHAR

STARTCHAR U+007a
ENCODING 122
SWIDTH 392 0
DWIDTH 6 0
BBX 6 11 0 -2
BITMAP
00
00
00
00
F8
30
60
C0
F8
00
00
ENDCHAR

STARTCHAR U+007b
ENCODING 123
SWIDTH 392 0
DWIDTH 6 0
BBX 6 11 0 -2
BITMAP
00
38
60
60
30
E0
30
30
60
60
38
ENDCHAR

STARTCHAR U+007c
ENCODING 124
SWIDTH 392 0
DWIDTH 6 0
BBX 6 11 0 -2
BITMAP
00
30
30
30
30
30
30
30
30
30
00
ENDCHAR

STARTCHAR U+007d
ENCODING 125
SWIDTH 392 0
DWIDTH 6 0
BBX 6 11 0 -2
BITMAP
00
E0
30
30
60
38
60
60
30
30
E0
ENDCHAR

STARTCHAR U+007e
ENCODING 126
SWIDTH 392 0
DWIDTH 6 0
BBX 6 11 0 -2
BITMAP
00
00
68
F8
B0
00
00
00
00
00
00
ENDCHAR

STARTCHAR U+0000
ENCODING 160
SWIDTH 392 0
DWIDTH 6 0
BBX 6 11 0 -2
BITMAP
00
00
00
78
48
48
48
48
78
00
00
ENDCHAR

STARTCHAR U+0000
ENCODING 161
SWIDTH 392 0
DWIDTH 6 0
BBX 6 11 0 -2
BITMAP
00
00
00
78
48
48
48
48
78
00
00
ENDCHAR

STARTCHAR U+0000
ENCODING 162
SWIDTH 392 0
DWIDTH 6 0
BBX 6 11 0 -2
BITMAP
00
00
00
78
48
48
48
48
78
00
00
ENDCHAR

STARTCHAR U+0000
ENCODING 163
SWIDTH 392 0
DWIDTH 6 0
BBX 6 11 0 -2
BITMAP
00
00
00
78
48
48
48
48
78
00
00
ENDCHAR

STARTCHAR U+0000
ENCODING 164
SWIDTH 392 0
DWIDTH 6 0
BBX 6 11 0 -2
BITMAP
00
00
00
78
48
48
48
48
78
00
00
ENDCHAR

STARTCHAR U+0000
ENCODING 165
SWIDTH 392 0
DWIDTH 6 0
BBX 6 11 0 -2
BITMAP
00
00
00
78
48
48
48
48
78
00
00
ENDCHAR

STARTCHAR U+0000
ENCODING 166
SWIDTH 392 0
DWIDTH 6 0
BBX 6 11 0 -2
BITMAP
00
00
00
78
48
48
48
48
78
00
00
ENDCHAR

STARTCHAR U+0000
ENCODING 167
SWIDTH 392 0
DWIDTH 6 0
BBX 6 11 0 -2
BITMAP
00
00
00
78
48
48
48
48
78
00
00
ENDCHAR

STARTCHAR U+0000
ENCODING 168
SWIDTH 392 0
DWIDTH 6 0
BBX 6 11 0 -2
BITMAP
00
00
00
78
48
48
48
48
78
00
00
ENDCHAR

STARTCHAR U+0000
ENCODING 169
SWIDTH 392 0
DWIDTH 6 0
BBX 6 11 0 -2
BITMAP
00
00
00
78
48
48
48
48
78
00
00
ENDCHAR

STARTCHAR U+0000
ENCODING 170
SWIDTH 392 0
DWIDTH 6 0
BBX 6 11 0 -2
BITMAP
00
00
00
78
48
48
48
48
78
00
00
ENDCHAR

STARTCHAR U+0000
ENCODING 171
SWIDTH 392 0
DWIDTH 6 0
BBX 6 11 0 -2
BITMAP
00
00
00
78
48
48
48
48
78
00
00
ENDCHAR

STARTCHAR U+0000
ENCODING 172
SWIDTH 392 0
DWIDTH 6 0
BBX 6 11 0 -2
BITMAP
00
00
00
78
48
48
48
48
78
00
00
ENDCHAR

STARTCHAR U+0000
ENCODING 173
SWIDTH 392 0
DWIDTH 6 0
BBX 6 11 0 -2
BITMAP
00
00
00
78
48
48
48
48
78
00
00
ENDCHAR

STARTCHAR U+0000
ENCODING 174
SWIDTH 392 0
DWIDTH 6 0
BBX 6 11 0 -2
BITMAP
00
00
00
78
48
48
48
48
78
00
00
ENDCHAR

STARTCHAR U+0000
ENCODING 175
SWIDTH 392 0
DWIDTH 6 0
BBX 6 11 0 -2
BITMAP
00
00
00
78
48
48
48
48
78
00
00
ENDCHAR

STARTCHAR U+0000
ENCODING 176
SWIDTH 392 0
DWIDTH 6 0
BBX 6 11 0 -2
BITMAP
00
00
00
78
48
48
48
48
78
00
00
ENDCHAR

STARTCHAR U+0000
ENCODING 177
SWIDTH 392 0
DWIDTH 6 0
BBX 6 11 0 -2
BITMAP
00
00
00
78
48
48
48
48
78
00
00
ENDCHAR

STARTCHAR U+0000
ENCODING 178
SWIDTH 392 0
DWIDTH 6 0
BBX 6 11 0 -2
BITMAP
00
00
00
78
48
48
48
48
78
00
00
ENDCHAR

STARTCHAR U+0000
ENCODING 179
SWIDTH 392 0
DWIDTH 6 0
BBX 6 11 0 -2
BITMAP
00
00
00
78
48
48
48
48
78
00
00
ENDCHAR

STARTCHAR U+0000
ENCODING 180
SWIDTH 392 0
DWIDTH 6 0
BBX 6 11 0 -2
BITMAP
00
00
00
78
48
48
48
48
78
00
00
ENDCHAR

STARTCHAR U+0000
ENCODING 181
SWIDTH 392 0
DWIDTH 6 0
BBX 6 11 0 -2
BITMAP
00
00
00
78
48
48
48
48
78
00
00
ENDCHAR

STARTCHAR U+0000
ENCODING 182
SWIDTH 392 0
DWIDTH 6 0
BBX 6 11 0 -2
BITMAP
00
00
00
78
48
48
48
48
78
00
00
ENDCHAR

STARTCHAR U+0000
ENCODING 183
SWIDTH 392 0
DWIDTH 6 0
BBX 6 11 0 -2
BITMAP
00
00
00
78
48
48
48
48
78
00
00
ENDCHAR

STARTCHAR U+0000
ENCODING 184
SWIDTH 392 0
DWIDTH 6 0
BBX 6 11 0 -2
BITMAP
00
00
00
78
48
48
48
48
78
00
00
ENDCHAR

STARTCHAR U+0000
ENCODING 185
SWIDTH 392 0
DWIDTH 6 0
BBX 6 11 0 -2
BITMAP
00
00
00
78
48
48
48
48
78
00
00
ENDCHAR

STARTCHAR U+0000
ENCODING 186
SWIDTH 392 0
DWIDTH 6 0
BBX 6 11 0 -2
BITMAP
00
00
00
78
48
48
48
48
78
00
00
ENDCHAR

STARTCHAR U+0000
ENCODING 187
SWIDTH 392 0
DWIDTH 6 0
BBX 6 11 0 -2
BITMAP
00
00
00
78
48
48
48
48
78
00
00
ENDCHAR

STARTCHAR U+0000
ENCODING 188
SWIDTH 392 0
DWIDTH 6 0
BBX 6 11 0 -2
BITMAP
00
00
00
78
48
48
48
48
78
00
00
ENDCHAR

STARTCHAR U+0000
ENCODING 189
SWIDTH 392 0
DWIDTH 6 0
BBX 6 11 0 -2
BITMAP
00
00
00
78
48
48
48
48
78
00
00
ENDCHAR

STARTCHAR U+0000
ENCODING 190
SWIDTH 392 0
DWIDTH 6 0
BBX 6 11 0 -2
BITMAP
00
00
00
78
48
48
48
48
78
00
00
ENDCHAR

STARTCHAR U+0000
ENCODING 191
SWIDTH 392 0
DWIDTH 6 0
BBX 6 11 0 -2
BITMAP
00
00
00
78
48
48
48
48
78
00
00
ENDCHAR

STARTCHAR U+0000
ENCODING 192
SWIDTH 392 0
DWIDTH 6 0
BBX 6 11 0 -2
BITMAP
00
00
00
78
48
48
48
48
78
00
00
ENDCHAR

STARTCHAR U+0000
ENCODING 193
SWIDTH 392 0
DWIDTH 6 0
BBX 6 11 0 -2
BITMAP
00
00
00
78
48
48
48
48
78
00
00
ENDCHAR

STARTCHAR U+0000
ENCODING 194
SWIDTH 392 0
DWIDTH 6 0
BBX 6 11 0 -2
BITMAP
00
00
00
78
48
48
48
48
78
00
00
ENDCHAR

STARTCHAR U+0000
ENCODING 195
SWIDTH 392 0
DWIDTH 6 0
BBX 6 11 0 -2
BITMAP
00
00
00
78
48
48
48
48
78
00
00
ENDCHAR

STARTCHAR U+0000
ENCODING 196
SWIDTH 392 0
DWIDTH 6 0
BBX 6 11 0 -2
BITMAP
00
00
00
78
48
48
48
48
78
00
00
ENDCHAR

STARTCHAR U+0000
ENCODING 197
SWIDTH 392 0
DWIDTH 6 0
BBX 6 11 0 -2
BITMAP
00
00
00
78
48
48
48
48
78
00
00
ENDCHAR

STARTCHAR U+0000
ENCODING 198
SWIDTH 392 0
DWIDTH 6 0
BBX 6 11 0 -2
BITMAP
00
00
00
78
48
48
48
48
78
00
00
ENDCHAR

STARTCHAR U+0000
ENCODING 199
SWIDTH 392 0
DWIDTH 6 0
BBX 6 11 0 -2
BITMAP
00
00
00
78
48
48
48
48
78
00
00
ENDCHAR

STARTCHAR U+0000
ENCODING 200
SWIDTH 392 0
DWIDTH 6 0
BBX 6 11 0 -2
BITMAP
00
00
00
78
48
48
48
48
78
00
00
ENDCHAR

STARTCHAR U+0000
ENCODING 201
SWIDTH 392 0
DWIDTH 6 0
BBX 6 11 0 -2
BITMAP
00
00
00
78
48
48
48
48
78
00
00
ENDCHAR

STARTCHAR U+0000
ENCODING 202
SWIDTH 392 0
DWIDTH 6 0
BBX 6 11 0 -2
BITMAP
00
00
00
78
48
48
48
48
78
00
00
ENDCHAR

STARTCHAR U+0000
ENCODING 203
SWIDTH 392 0
DWIDTH 6 0
BBX 6 11 0 -2
BITMAP
00
00
00
78
48
48
48
48
78
00
00
ENDCHAR

STARTCHAR U+0000
ENCODING 204
SWIDTH 392 0
DWIDTH 6 0
BBX 6 11 0 -2
BITMAP
00
00
00
78
48
48
48
48
78
00
00
ENDCHAR

STARTCHAR U+0000
ENCODING 205
SWIDTH 392 0
DWIDTH 6 0
BBX 6 11 0 -2
BITMAP
00
00
00
78
48
48
48
48
78
00
00
ENDCHAR

STARTCHAR U+0000
ENCODING 206
SWIDTH 392 0
DWIDTH 6 0
BBX 6 11 0 -2
BITMAP
00
00
00
78
48
48
48
48
78
00
00
ENDCHAR

STARTCHAR U+0000
ENCODING 207
SWIDTH 392 0
DWIDTH 6 0
BBX 6 11 0 -2
BITMAP
00
00
00
78
48
48
48
48
78
00
00
ENDCHAR

STARTCHAR U+0000
ENCODING 208
SWIDTH 392 0
DWIDTH 6 0
BBX 6 11 0 -2
BITMAP
00
00
00
78
48
48
48
48
78
00
00
ENDCHAR

STARTCHAR U+0000
ENCODING 209
SWIDTH 392 0
DWIDTH 6 0
BBX 6 11 0 -2
BITMAP
00
00
00
78
48
48
48
48
78
00
00
ENDCHAR

STARTCHAR U+0000
ENCODING 210
SWIDTH 392 0
DWIDTH 6 0
BBX 6 11 0 -2
BITMAP
00
00
00
78
48
48
48
48
78
00
00
ENDCHAR

STARTCHAR U+0000
ENCODING 211
SWIDTH 392 0
DWIDTH 6 0
BBX 6 11 0 -2
BITMAP
00
00
00
78
48
48
48
48
78
00
00
ENDCHAR

STARTCHAR U+0000
ENCODING 212
SWIDTH 392 0
DWIDTH 6 0
BBX 6 11 0 -2
BITMAP
00
00
00
78
48
48
48
48
78
00
00
ENDCHAR

STARTCHAR U+0000
ENCODING 213
SWIDTH 392 0
DWIDTH 6 0
BBX 6 11 0 -2
BITMAP
00
00
00
78
48
48
48
48
78
00
00
ENDCHAR

STARTCHAR U+0000
ENCODING 214
SWIDTH 392 0
DWIDTH 6 0
BBX 6 11 0 -2
BITMAP
00
00
00
78
48
48
48
48
78
00
00
ENDCHAR

STARTCHAR U+0000
ENCODING 215
SWIDTH 392 0
DWIDTH 6 0
BBX 6 11 0 -2
BITMAP
00
00
00
78
48
48
48
48
78
00
00
ENDCHAR

STARTCHAR U+0000
ENCODING 216
SWIDTH 392 0
DWIDTH 6 0
BBX 6 11 0 -2
BITMAP
00
00
00
78
48
48
48
48
78
00
00
ENDCHAR

STARTCHAR U+0000
ENCODING 217
SWIDTH 392 0
DWIDTH 6 0
BBX 6 11 0 -2
BITMAP
00
00
00
78
48
48
48
48
78
00
00
ENDCHAR

STARTCHAR U+0000
ENCODING 218
SWIDTH 392 0
DWIDTH 6 0
BBX 6 11 0 -2
BITMAP
00
00
00
78
48
48
48
48
78
00
00
ENDCHAR

STARTCHAR U+0000
ENCODING 219
SWIDTH 392 0
DWIDTH 6 0
BBX 6 11 0 -2
BITMAP
00
00
00
78
48
48
48
48
78
00
00
ENDCHAR

STARTCHAR U+0000
ENCODING 220
SWIDTH 392 0
DWIDTH 6 0
BBX 6 11 0 -2
BITMAP
00
00
00
78
48
48
48
48
78
00
00
ENDCHAR

STARTCHAR U+0000
ENCODING 221
SWIDTH 392 0
DWIDTH 6 0
BBX 6 11 0 -2
BITMAP
00
00
00
78
48
48
48
48
78
00
00
ENDCHAR

STARTCHAR U+0000
ENCODING 222
SWIDTH 392 0
DWIDTH 6 0
BBX 6 11 0 -2
BITMAP
00
00
00
78
48
48
48
48
78
00
00
ENDCHAR

STARTCHAR U+0000
ENCODING 223
SWIDTH 392 0
DWIDTH 6 0
BBX 6 11 0 -2
BITMAP
00
00
00
78
48
48
48
48
78
00
00
ENDCHAR

STARTCHAR U+0000
ENCODING 224
SWIDTH 392 0
DWIDTH 6 0
BBX 6 11 0 -2
BITMAP
00
00
00
78
48
48
48
48
78
00
00
ENDCHAR

STARTCHAR U+0000
ENCODING 225
SWIDTH 392 0
DWIDTH 6 0
BBX 6 11 0 -2
BITMAP
00
00
00
78
48
48
48
48
78
00
00
ENDCHAR

STARTCHAR U+0000
ENCODING 226
SWIDTH 392 0
DWIDTH 6 0
BBX 6 11 0 -2
BITMAP
00
00
00
78
48
48
48
48
78
00
00
ENDCHAR

STARTCHAR U+0000
ENCODING 227
SWIDTH 392 0
DWIDTH 6 0
BBX 6 11 0 -2
BITMAP
00
00
00
78
48
48
48
48
78
00
00
ENDCHAR

STARTCHAR U+0000
ENCODING 228
SWIDTH 392 0
DWIDTH 6 0
BBX 6 11 0 -2
BITMAP
00
00
00
78
48
48
48
48
78
00
00
ENDCHAR

STARTCHAR U+0000
ENCODING 229
SWIDTH 392 0
DWIDTH 6 0
BBX 6 11 0 -2
BITMAP
00
00
00
78
48
48
48
48
78
00
00
ENDCHAR

STARTCHAR U+0000
ENCODING 230
SWIDTH 392 0
DWIDTH 6 0
BBX 6 11 0 -2
BITMAP
00
00
00
78
48
48
48
48
78
00
00
ENDCHAR

STARTCHAR U+0000
ENCODING 231
SWIDTH 392 0
DWIDTH 6 0
BBX 6 11 0 -2
BITMAP
00
00
00
78
48
48
48
48
78
00
00
ENDCHAR

STARTCHAR U+0000
ENCODING 232
SWIDTH 392 0
DWIDTH 6 0
BBX 6 11 0 -2
BITMAP
00
00
00
78
48
48
48
48
78
00
00
ENDCHAR

STARTCHAR U+0000
ENCODING 233
SWIDTH 392 0
DWIDTH 6 0
BBX 6 11 0 -2
BITMAP
00
00
00
78
48
48
48
48
78
00
00
ENDCHAR

STARTCHAR U+0000
ENCODING 234
SWIDTH 392 0
DWIDTH 6 0
BBX 6 11 0 -2
BITMAP
00
00
00
78
48
48
48
48
78
00
00
ENDCHAR

STARTCHAR U+0000
ENCODING 235
SWIDTH 392 0
DWIDTH 6 0
BBX 6 11 0 -2
BITMAP
00
00
00
78
48
48
48
48
78
00
00
ENDCHAR

STARTCHAR U+0000
ENCODING 236
SWIDTH 392 0
DWIDTH 6 0
BBX 6 11 0 -2
BITMAP
00
00
00
78
48
48
48
48
78
00
00
ENDCHAR

STARTCHAR U+0000
ENCODING 237
SWIDTH 392 0
DWIDTH 6 0
BBX 6 11 0 -2
BITMAP
00
00
00
78
48
48
48
48
78
00
00
ENDCHAR

STARTCHAR U+0000
ENCODING 238
SWIDTH 392 0
DWIDTH 6 0
BBX 6 11 0 -2
BITMAP
00
00
00
78
48
48
48
48
78
00
00
ENDCHAR

STARTCHAR U+0000
ENCODING 239
SWIDTH 392 0
DWIDTH 6 0
BBX 6 11 0 -2
BITMAP
00
00
00
78
48
48
48
48
78
00
00
ENDCHAR

STARTCHAR U+0000
ENCODING 240
SWIDTH 392 0
DWIDTH 6 0
BBX 6 11 0 -2
BITMAP
00
00
00
78
48
48
48
48
78
00
00
ENDCHAR

STARTCHAR U+0000
ENCODING 241
SWIDTH 392 0
DWIDTH 6 0
BBX 6 11 0 -2
BITMAP
00
00
00
78
48
48
48
48
78
00
00
ENDCHAR

STARTCHAR U+0000
ENCODING 242
SWIDTH 392 0
DWIDTH 6 0
BBX 6 11 0 -2
BITMAP
00
00
00
78
48
48
48
48
78
00
00
ENDCHAR

STARTCHAR U+0000
ENCODING 243
SWIDTH 392 0
DWIDTH 6 0
BBX 6 11 0 -2
BITMAP
00
00
00
78
48
48
48
48
78
00
00
ENDCHAR

STARTCHAR U+0000
ENCODING 244
SWIDTH 392 0
DWIDTH 6 0
BBX 6 11 0 -2
BITMAP
00
00
00
78
48
48
48
48
78
00
00
ENDCHAR

STARTCHAR U+0000
ENCODING 245
SWIDTH 392 0
DWIDTH 6 0
BBX 6 11 0 -2
BITMAP
00
00
00
78
48
48
48
48
78
00
00
ENDCHAR

STARTCHAR U+0000
ENCODING 246
SWIDTH 392 0
DWIDTH 6 0
BBX 6 11 0 -2
BITMAP
00
00
00
78
48
48
48
48
78
00
00
ENDCHAR

STARTCHAR U+0000
ENCODING 247
SWIDTH 392 0
DWIDTH 6 0
BBX 6 11 0 -2
BITMAP
00
00
00
78
48
48
48
48
78
00
00
ENDCHAR

STARTCHAR U+0000
ENCODING 248
SWIDTH 392 0
DWIDTH 6 0
BBX 6 11 0 -2
BITMAP
00
00
00
78
48
48
48
48
78
00
00
ENDCHAR

STARTCHAR U+0000
ENCODING 249
SWIDTH 392 0
DWIDTH 6 0
BBX 6 11 0 -2
BITMAP
00
00
00
78
48
48
48
48
78
00
00
ENDCHAR

STARTCHAR U+0000
ENCODING 250
SWIDTH 392 0
DWIDTH 6 0
BBX 6 11 0 -2
BITMAP
00
00
00
78
48
48
48
48
78
00
00
ENDCHAR

STARTCHAR U+0000
ENCODING 251
SWIDTH 392 0
DWIDTH 6 0
BBX 6 11 0 -2
BITMAP
00
00
00
78
48
48
48
48
78
00
00
ENDCHAR

STARTCHAR U+0000
ENCODING 252
SWIDTH 392 0
DWIDTH 6 0
BBX 6 11 0 -2
BITMAP
00
00
00
78
48
48
48
48
78
00
00
ENDCHAR

STARTCHAR U+0000
ENCODING 253
SWIDTH 392 0
DWIDTH 6 0
BBX 6 11 0 -2
BITMAP
00
00
00
78
48
48
48
48
78
00
00
ENDCHAR

STARTCHAR U+0000
ENCODING 254
SWIDTH 392 0
DWIDTH 6 0
BBX 6 11 0 -2
BITMAP
00
00
00
78
48
48
48
48
78
00
00
ENDCHAR

STARTCHAR U+0000
ENCODING 255
SWIDTH 392 0
DWIDTH 6 0
BBX 6 11 0 -2
BITMAP
00
00
00
78
48
48
48
48
78
00
00
ENDCHAR

ENDFONT
